<?xml version="1.0" encoding="utf-8"?>
<!-- Generator: Adobe Illustrator 16.0.0, SVG Export Plug-In . SVG Version: 6.00 Build 0)  -->
<!DOCTYPE svg PUBLIC "-//W3C//DTD SVG 1.1//EN" "http://www.w3.org/Graphics/SVG/1.1/DTD/svg11.dtd">
<svg version="1.1" id="Layer_1" xmlns="http://www.w3.org/2000/svg" xmlns:xlink="http://www.w3.org/1999/xlink" x="0px" y="0px"
	 width="512px" height="512px" viewBox="0 0 512 512" enable-background="new 0 0 512 512" xml:space="preserve">
<g id="_x31_133_x2C__plate_x2C__food_x2C__thanks_x2C__giving">
	<g>
		<path d="M256,76.023c-99.247,0-179.986,80.74-179.986,179.978c0,99.248,80.739,179.986,179.986,179.986
			c99.238,0,179.977-80.738,179.977-179.986C435.977,156.763,355.238,76.023,256,76.023z M256,415.984
			c-88.221,0-159.984-71.764-159.984-159.984c0-88.211,71.764-159.976,159.984-159.976c88.211,0,159.975,71.765,159.975,159.976
			C415.975,344.221,344.211,415.984,256,415.984z"/>
		<path d="M256,146.015c-60.65,0-109.99,49.34-109.99,109.985c0,5.527,4.473,10,10.001,10c5.519,0,10.001-4.473,10.001-10
			c0-49.614,40.365-89.989,89.988-89.989c5.518,0,9.991-4.473,9.991-9.995C265.991,150.493,261.518,146.015,256,146.015z"/>
		<rect x="146.01" y="286.002" width="20.002" height="19.992"/>
		<path d="M485.971,475.98H352.199C436.113,439.248,495.973,355.209,495.973,256c0-132.624-107.334-239.973-239.973-239.973
			C123.371,16.028,16.027,123.362,16.027,256c0,64.107,24.963,124.367,70.28,169.693c21.524,21.516,46.42,38.438,73.483,50.286
			H26.02c-5.519,0-9.992,4.474-9.992,10c0,5.521,4.474,9.992,9.992,9.992h459.951c5.521,0,10.002-4.473,10.002-9.992
			C495.973,480.453,491.49,475.98,485.971,475.98z M36.02,256C36.02,134.71,134.7,36.03,256,36.03
			c121.289,0,219.971,98.681,219.971,219.971c0,121.3-98.682,219.98-219.971,219.98C134.7,475.98,36.02,377.301,36.02,256z"/>
	</g>
</g>
<g id="Layer_1_1_">
</g>
</svg>
